<svg class="bob" font-family="arial" font-size="14" height="256" width="520" xmlns="http://www.w3.org/2000/svg">
<defs>
<marker id="triangle" markerHeight="8" markerWidth="8" orient="auto" refX="4" refY="2" viewBox="0 0 8 4">
<polygon fill="black" points="0,0 0,4 8,2 0,0"/>
</marker>
<marker id="clear_triangle" markerHeight="10" markerWidth="10" orient="auto" refX="1" refY="7" viewBox="0 0 20 14">
<polygon fill="none" points="2,2 2,12 18,7 2,2" stroke="black" stroke-width="2"/>
</marker>
<marker id="circle" markerHeight="5" markerWidth="5" orient="auto" refX="10" refY="10" viewBox="0 0 20 20">
<circle cx="10" cy="10" fill="black" r="8"/>
</marker>
<marker id="square" markerHeight="5" markerWidth="5" orient="auto" refX="10" refY="10" viewBox="0 0 20 20">
<rect fill="black" height="20" width="20" x="0" y="0"/>
</marker>
<marker id="open_circle" markerHeight="10" markerWidth="10" orient="auto" refX="10" refY="10" viewBox="0 0 20 20">
<circle cx="10" cy="10" fill="white" r="4" stroke="black" stroke-width="2"/>
</marker>
<marker id="big_open_circle" markerHeight="20" markerWidth="20" orient="auto" refX="20" refY="20" viewBox="0 0 40 40">
<circle cx="20" cy="20" fill="white" r="6" stroke="black" stroke-width="2"/>
</marker>
</defs>
<style type="text/css">

    line,path {
      stroke: black;
      stroke-width: 2;
      stroke-opacity: 1;
      fill-opacity: 1;
      stroke-linecap: round;
      stroke-linejoin: miter;
    }
    line.dashed {
        stroke-dasharray: 5;
    }
    circle.solid {
      fill:black;
      stroke: black;
      stroke-width: 2;
      stroke-opacity: 1;
      fill-opacity: 1;
      stroke-linecap: round;
      stroke-linejoin: miter;
    }
    circle.open {
      fill:none;
      stroke: black;
      stroke-width: 2;
      stroke-opacity: 1;
      fill-opacity: 1;
      stroke-linecap: round;
      stroke-linejoin: miter;
    }
    tspan.head{
        fill: none;
        stroke: none;
    }
    
</style>
<rect fill="white" height="256" width="520" x="0" y="0"/>
<g>
<line x1="4" x2="4" y1="56" y2="248"/>
<line x1="4" x2="516" y1="56" y2="56"/>
<line x1="4" x2="516" y1="248" y2="248"/>
<line x1="516" x2="516" y1="56" y2="248"/>
</g>
<g>
<line x1="4" x2="516" y1="88" y2="88"/>
</g>
<g>
<line x1="4" x2="516" y1="120" y2="120"/>
</g>
<g>
<line x1="4" x2="516" y1="152" y2="152"/>
</g>
<g>
<line x1="4" x2="516" y1="184" y2="184"/>
</g>
<g>
<line x1="4" x2="516" y1="216" y2="216"/>
</g>
<g>
<line x1="132" x2="132" y1="128" y2="144"/>
</g>
<g>
<line x1="260" x2="260" y1="128" y2="144"/>
</g>
<g>
<line x1="388" x2="388" y1="224" y2="240"/>
</g>
<g>
<text x="9" y="28">
0
</text>
</g>
<g>
<text x="9" y="44">
0
</text>
</g>
<g>
<text x="9" y="76">
Version|
</text>
</g>
<g>
<text x="25" y="44">
1
</text>
</g>
<g>
<text x="25" y="140">
Time
</text>
</g>
<g>
<text x="41" y="44">
2
</text>
</g>
<g>
<text x="57" y="44">
3
</text>
</g>
<g>
<text x="65" y="140">
to
</text>
</g>
<g>
<text x="73" y="44">
4
</text>
</g>
<g>
<text x="81" y="108">
Identification
</text>
</g>
<g>
<text x="89" y="44">
5
</text>
</g>
<g>
<text x="89" y="76">
IHL
</text>
</g>
<g>
<text x="89" y="140">
Live
</text>
</g>
<g>
<text x="105" y="44">
6
</text>
</g>
<g>
<text x="121" y="44">
7
</text>
</g>
<g>
<text x="129" y="76">
|Type
</text>
</g>
<g>
<text x="137" y="44">
8
</text>
</g>
<g>
<text x="153" y="44">
9
</text>
</g>
<g>
<text x="169" y="28">
1
</text>
</g>
<g>
<text x="169" y="44">
0
</text>
</g>
<g>
<text x="169" y="140">
Protocol
</text>
</g>
<g>
<text x="169" y="236">
Options
</text>
</g>
<g>
<text x="177" y="76">
of
</text>
</g>
<g>
<text x="185" y="44">
1
</text>
</g>
<g>
<text x="185" y="204">
Destination
</text>
</g>
<g>
<text x="201" y="44">
2
</text>
</g>
<g>
<text x="201" y="76">
Service|
</text>
</g>
<g>
<text x="209" y="172">
Source
</text>
</g>
<g>
<text x="217" y="44">
3
</text>
</g>
<g>
<text x="233" y="44">
4
</text>
</g>
<g>
<text x="249" y="44">
5
</text>
</g>
<g>
<text x="257" y="108">
|Flags|
</text>
</g>
<g>
<text x="265" y="44">
6
</text>
</g>
<g>
<text x="265" y="172">
Address
</text>
</g>
<g>
<text x="281" y="44">
7
</text>
</g>
<g>
<text x="281" y="204">
Address
</text>
</g>
<g>
<text x="297" y="44">
8
</text>
</g>
<g>
<text x="313" y="44">
9
</text>
</g>
<g>
<text x="329" y="28">
2
</text>
</g>
<g>
<text x="329" y="44">
0
</text>
</g>
<g>
<text x="329" y="140">
Header
</text>
</g>
<g>
<text x="345" y="44">
1
</text>
</g>
<g>
<text x="345" y="76">
Total
</text>
</g>
<g>
<text x="353" y="108">
Fragment
</text>
</g>
<g>
<text x="361" y="44">
2
</text>
</g>
<g>
<text x="377" y="44">
3
</text>
</g>
<g>
<text x="385" y="140">
Checksum
</text>
</g>
<g>
<text x="393" y="44">
4
</text>
</g>
<g>
<text x="393" y="76">
Length
</text>
</g>
<g>
<text x="409" y="44">
5
</text>
</g>
<g>
<text x="425" y="44">
6
</text>
</g>
<g>
<text x="425" y="108">
Offset
</text>
</g>
<g>
<text x="425" y="236">
Padding
</text>
</g>
<g>
<text x="441" y="44">
7
</text>
</g>
<g>
<text x="457" y="44">
8
</text>
</g>
<g>
<text x="473" y="44">
9
</text>
</g>
<g>
<text x="489" y="28">
3
</text>
</g>
<g>
<text x="489" y="44">
0
</text>
</g>
<g>
<text x="505" y="44">
1
</text>
</g>
</svg>