<?xml version="1.0" encoding="UTF-8" standalone="no"?>
<!-- Generated by graphviz version 2.40.1 (0)
 -->

<!-- Title: System Pages: 1 -->

<svg
   xmlns:dc="http://purl.org/dc/elements/1.1/"
   xmlns:cc="http://creativecommons.org/ns#"
   xmlns:rdf="http://www.w3.org/1999/02/22-rdf-syntax-ns#"
   xmlns:svg="http://www.w3.org/2000/svg"
   xmlns="http://www.w3.org/2000/svg"
   xmlns:sodipodi="http://sodipodi.sourceforge.net/DTD/sodipodi-0.dtd"
   xmlns:inkscape="http://www.inkscape.org/namespaces/inkscape"
   width="785pt"
   height="603pt"
   viewBox="0.00 0.00 785.00 603.00"
   version="1.1"
   id="svg1368"
   sodipodi:docname="graph.svg"
   inkscape:version="0.92.4 (unknown)">
  <metadata
     id="metadata1374">
    <rdf:RDF>
      <cc:Work
         rdf:about="">
        <dc:format>image/svg+xml</dc:format>
        <dc:type
           rdf:resource="http://purl.org/dc/dcmitype/StillImage" />
      </cc:Work>
    </rdf:RDF>
  </metadata>
  <defs
     id="defs1372" />
  <sodipodi:namedview
     pagecolor="#ffffff"
     bordercolor="#666666"
     borderopacity="1"
     objecttolerance="10"
     gridtolerance="10"
     guidetolerance="10"
     inkscape:pageopacity="0"
     inkscape:pageshadow="2"
     inkscape:window-width="1920"
     inkscape:window-height="1016"
     id="namedview1370"
     showgrid="false"
     inkscape:zoom="0.5130597"
     inkscape:cx="-33.13025"
     inkscape:cy="218.64367"
     inkscape:window-x="0"
     inkscape:window-y="27"
     inkscape:window-maximized="1"
     inkscape:current-layer="svg1368" />
  <polygon
     style="fill:#ffffff"
     id="polygon1126"
     points="781,4 -4,4 -4,-599 781,-599 "
     stroke="transparent"
     transform="translate(11.235631,608.30295)" />
  <g
     class="cluster"
     id="clust1"
     transform="translate(11.235631,608.30295)">
    <title
       id="title1128">cluster_TCPIP</title>
    <polygon
       style="fill:none;stroke:#d3d3d3"
       id="polygon1130"
       points="738,-8 8,-8 8,-389 738,-389 " />
    <text
       style="font-size:14px;font-family:Times, serif;text-anchor:middle;fill:#000000"
       id="text1132"
       font-size="14.00"
       y="-373.79999"
       x="373">TCP/IP project</text>
  </g>
  <polygon
     points="131,-114 235,-114 235,-16 131,-16 "
     id="polygon1137"
     style="fill:none;stroke:#d3d3d3"
     transform="translate(11.235631,608.30295)" />
  <polygon
     points="353,-358 730,-358 730,-260 353,-260 "
     id="polygon1144"
     style="fill:none;stroke:#d3d3d3"
     transform="translate(11.235631,608.30295)" />
  <g
     class="cluster"
     id="clust6"
     transform="translate(11.235631,608.30295)">
    <title
       id="title1149">cluster_Buffer</title>
    <polygon
       style="fill:none;stroke:#d3d3d3"
       id="polygon1151"
       points="345,-260 16,-260 16,-358 345,-358 " />
    <text
       style="font-size:14px;font-family:Times, serif;text-anchor:middle;fill:#000000"
       id="text1153"
       font-size="14.00"
       y="-342.79999"
       x="180.5">Buffers</text>
  </g>
  <polygon
     points="305,-114 405,-114 405,-16 305,-16 "
     id="polygon1158"
     style="fill:none;stroke:#d3d3d3"
     transform="translate(11.235631,608.30295)" />
  <g
     class="cluster"
     id="clust10"
     transform="translate(11.235631,608.30295)">
    <title
       id="title1163">cluster_External</title>
    <polygon
       style="fill:none;stroke:#d3d3d3"
       id="polygon1165"
       points="729,-450 87,-450 87,-587 729,-587 " />
    <text
       style="font-size:14px;font-family:Times, serif;text-anchor:middle;fill:#000000"
       id="text1167"
       font-size="14.00"
       y="-571.79999"
       x="408">External</text>
  </g>
  <g
     class="cluster"
     id="clust11"
     transform="translate(11.235631,608.30295)">
    <title
       id="title1170">cluster_Simulator</title>
    <polygon
       style="fill:none;stroke:#d3d3d3"
       id="polygon1172"
       points="657,-458 95,-458 95,-556 657,-556 " />
    <text
       style="font-size:14px;font-family:Times, serif;text-anchor:middle;fill:#000000"
       id="text1174"
       font-size="14.00"
       y="-540.79999"
       x="376">Simulator</text>
  </g>
  <g
     class="node"
     id="node1"
     transform="translate(11.235631,608.30295)">
    <title
       id="title1177">TunSimulator</title>
    <polygon
       style="fill:none;stroke:#000000"
       id="polygon1179"
       points="648.5,-466 648.5,-502 533.5,-502 533.5,-466 " />
    <text
       style="font-size:14px;font-family:Times, serif;text-anchor:middle;fill:#000000"
       id="text1181"
       font-size="14.00"
       y="-480.29999"
       x="591">TunSimulator</text>
  </g>
  <g
     class="node"
     id="node2"
     transform="translate(11.235631,608.30295)">
    <title
       id="title1184">DatagramInputSimulator</title>
    <polygon
       style="fill:none;stroke:#000000"
       id="polygon1186"
       points="515.5,-466 515.5,-502 318.5,-502 318.5,-466 " />
    <text
       style="font-size:14px;font-family:Times, serif;text-anchor:middle;fill:#000000"
       id="text1188"
       font-size="14.00"
       y="-480.29999"
       x="417">DatagramInputSimulator</text>
  </g>
  <g
     class="node"
     id="node3"
     transform="translate(11.235631,608.30295)">
    <title
       id="title1191">GraphFileInputSimulator</title>
    <polygon
       style="fill:none;stroke:#000000"
       id="polygon1193"
       points="300.5,-466 300.5,-502 103.5,-502 103.5,-466 " />
    <text
       style="font-size:14px;font-family:Times, serif;text-anchor:middle;fill:#000000"
       id="text1195"
       font-size="14.00"
       y="-480.29999"
       x="202">GraphFileInputSimulator</text>
  </g>
  <g
     class="node"
     id="node5"
     transform="translate(11.235631,608.30295)">
    <title
       id="title1198">InternetIn</title>
    <polygon
       style="fill:none;stroke:#000000"
       id="polygon1200"
       points="600.5,-268 600.5,-304 509.5,-304 509.5,-268 " />
    <text
       style="font-size:14px;font-family:Times, serif;text-anchor:middle;fill:#000000"
       id="text1202"
       font-size="14.00"
       y="-282.29999"
       x="555">InternetIn</text>
  </g>
  <path
     d="m 291.23563,142.35565 c 0,34.8402 0,107.9473 0,107.9473 0,0 244.5,0 244.5,0 0,0 0,43.8314 0,43.8314"
     id="path1207"
     inkscape:connector-curvature="0"
     style="fill:none;stroke:#000000" />
  <polygon
     points="521.0001,-314.1687 528.0001,-314.1686 524.5,-304.1686 "
     id="polygon1209"
     style="fill:#000000;stroke:#000000"
     transform="translate(11.235631,608.30295)" />
  <g
     class="node"
     id="node4"
     transform="translate(11.235631,608.30295)">
    <title
       id="title1218">Link</title>
    <polygon
       style="fill:none;stroke:#000000"
       id="polygon1220"
       points="721,-466 721,-502 667,-502 667,-466 " />
    <text
       style="font-size:14px;font-family:Times, serif;text-anchor:middle;fill:#000000"
       id="text1222"
       font-size="14.00"
       y="-480.29999"
       x="694">Link</text>
  </g>
  <g
     class="node"
     id="node9"
     transform="translate(11.235631,608.30295)">
    <title
       id="title1225">Transport</title>
    <polygon
       style="fill:none;stroke:#000000"
       id="polygon1227"
       points="227,-24 227,-60 139,-60 139,-24 " />
    <text
       style="font-size:14px;font-family:Times, serif;text-anchor:middle;fill:#000000"
       id="text1229"
       font-size="14.00"
       y="-38.299999"
       x="183">Transport</text>
  </g>
  <path
     d="m 566.23563,340.30445 c 0,33.9364 0,103.9985 0,103.9985 0,0 -352.8333,0 -352.8333,0 0,0 0,93.9985 0,93.9985"
     id="path1234"
     inkscape:connector-curvature="0"
     style="fill:none;stroke:#000000" />
  <polygon
     points="198.6668,-70.0016 205.6668,-70.0015 202.1667,-60.0015 "
     id="polygon1236"
     style="fill:#000000;stroke:#000000"
     transform="translate(11.235631,608.30295)" />
  <g
     class="node"
     id="node6"
     transform="translate(11.235631,608.30295)">
    <title
       id="title1251">InternetOut</title>
    <polygon
       style="fill:none;stroke:#000000"
       id="polygon1253"
       points="721.5,-268 721.5,-304 618.5,-304 618.5,-268 " />
    <text
       style="font-size:14px;font-family:Times, serif;text-anchor:middle;fill:#000000"
       id="text1255"
       font-size="14.00"
       y="-282.29999"
       x="670">InternetOut</text>
  </g>
  <path
     d="m 705.23563,304.03045 c 0,0 0,-151.4992 0,-151.4992"
     id="path1260"
     inkscape:connector-curvature="0"
     style="fill:none;stroke:#000000" />
  <polygon
     points="697.5001,-455.7717 690.5001,-455.7717 694,-465.7717 "
     id="polygon1262"
     style="fill:#000000;stroke:#000000"
     transform="translate(11.235631,608.30295)" />
  <g
     class="node"
     id="node7"
     transform="translate(11.235631,608.30295)">
    <title
       id="title1267">BufferIn</title>
    <polygon
       style="fill:none;stroke:#000000"
       id="polygon1269"
       points="336.5,-268 336.5,-304 259.5,-304 259.5,-268 " />
    <text
       style="font-size:14px;font-family:Times, serif;text-anchor:middle;fill:#000000"
       id="text1271"
       font-size="14.00"
       y="-282.29999"
       x="298">BufferIn</text>
  </g>
  <g
     class="node"
     id="node11"
     transform="translate(11.235631,608.30295)">
    <title
       id="title1274">Interface</title>
    <polygon
       style="fill:none;stroke:#000000"
       id="polygon1276"
       points="396.5,-24 396.5,-60 313.5,-60 313.5,-24 " />
    <text
       style="font-size:14px;font-family:Times, serif;text-anchor:middle;fill:#000000"
       id="text1278"
       font-size="14.00"
       y="-38.299999"
       x="355">Interface</text>
  </g>
  <path
     d="m 336.23563,340.64265 c 0,0 0,197.4407 0,197.4407"
     id="path1283"
     inkscape:connector-curvature="0"
     style="fill:none;stroke:#000000" />
  <polygon
     points="321.5001,-70.2197 328.5001,-70.2196 325,-60.2196 "
     id="polygon1285"
     style="fill:#000000;stroke:#000000"
     transform="translate(11.235631,608.30295)" />
  <g
     class="node"
     id="node8"
     transform="translate(11.235631,608.30295)">
    <title
       id="title1290">BufferOut</title>
    <polygon
       style="fill:none;stroke:#000000"
       id="polygon1292"
       points="241.5,-268 241.5,-304 152.5,-304 152.5,-268 " />
    <text
       style="font-size:14px;font-family:Times, serif;text-anchor:middle;fill:#000000"
       id="text1294"
       font-size="14.00"
       y="-282.29999"
       x="197">BufferOut</text>
  </g>
  <path
     d="m 188.56893,340.64265 c 0,0 0,197.4407 0,197.4407"
     id="path1299"
     inkscape:connector-curvature="0"
     style="fill:none;stroke:#000000" />
  <polygon
     points="173.8334,-70.2197 180.8334,-70.2196 177.3333,-60.2196 "
     id="polygon1301"
     style="fill:#000000;stroke:#000000"
     transform="translate(11.235631,608.30295)" />
  <path
     d="m 238.42913,572.30295 c 28.131,0 59.3065,0 59.3065,0 0,0 0,-221.6169 0,-221.6169"
     id="path1310"
     inkscape:connector-curvature="0"
     style="fill:none;stroke:#000000" />
  <polygon
     points="290.0001,-257.6169 283.0001,-257.6169 286.5,-267.6169 "
     id="polygon1312"
     style="fill:#000000;stroke:#000000"
     transform="translate(11.235631,608.30295)" />
  <g
     class="node"
     id="node10"
     transform="translate(11.235631,608.30295)">
    <title
       id="title1319">PacketBuffer</title>
    <polygon
       style="fill:none;stroke:#000000"
       id="polygon1321"
       points="134,-268 134,-304 24,-304 24,-268 " />
    <text
       style="font-size:14px;font-family:Times, serif;text-anchor:middle;fill:#000000"
       id="text1323"
       font-size="14.00"
       y="-282.29999"
       x="79">PacketBuffer</text>
  </g>
  <path
     d="m 156.98563,547.96325 c 0,-56.745 0,-225.6603 0,-225.6603 0,0 -1.627,0 -1.627,0"
     id="path1328"
     inkscape:connector-curvature="0"
     style="fill:none;stroke:#000000" />
  <polygon
     points="144.123,-289.5001 144.1231,-282.5001 134.123,-286 "
     id="polygon1330"
     style="fill:#000000;stroke:#000000"
     transform="translate(11.235631,608.30295)" />
  <path
     d="m 324.68033,560.30295 c -34.9287,0 -79.1947,0 -79.1947,0 0,0 0,-209.7197 0,-209.7197"
     id="path1346"
     inkscape:connector-curvature="0"
     style="fill:none;stroke:#000000" />
  <polygon
     points="237.7501,-257.7198 230.7501,-257.7197 234.25,-267.7197 "
     id="polygon1348"
     style="fill:#000000;stroke:#000000"
     transform="translate(11.235631,608.30295)" />
  <g
     class="node"
     id="node12"
     transform="translate(11.235631,608.30295)">
    <title
       id="title1353">IPv4</title>
    <polygon
       style="fill:none;stroke:#000000"
       id="polygon1355"
       points="491,-268 491,-304 437,-304 437,-268 " />
    <text
       style="font-size:14px;font-family:Times, serif;text-anchor:middle;fill:#000000"
       id="text1357"
       font-size="14.00"
       y="-282.29999"
       x="464">IPv4</text>
  </g>
  <g
     class="node"
     id="node13"
     transform="translate(11.235631,608.30295)">
    <title
       id="title1360">ICMP</title>
    <polygon
       style="fill:none;stroke:#000000"
       id="polygon1362"
       points="419,-268 419,-304 361,-304 361,-268 " />
    <text
       style="font-size:14px;font-family:Times, serif;text-anchor:middle;fill:#000000"
       id="text1364"
       font-size="14.00"
       y="-282.29999"
       x="390">ICMP</text>
  </g>
</svg>
